<svg width="30" height="45" viewBox="0 0 30 45" fill="none" xmlns="http://www.w3.org/2000/svg">
<path d="M27.5 15C27.5 10.286 27.5 7.92894 26.0355 6.46446C24.5711 5 22.214 5 17.5 5H12.5C7.78595 5 5.42894 5 3.96446 6.46446C2.5 7.92894 2.5 10.286 2.5 15C2.5 19.714 2.5 22.0711 3.96446 23.5355C5.42894 25 7.78595 25 12.5 25H17.5C22.214 25 24.5711 25 26.0355 23.5355C26.852 22.719 27.2133 21.6251 27.3731 20" stroke="#919191" stroke-width="1.5" stroke-linecap="round"/>
<path d="M12.5 20H7.5" stroke="#919191" stroke-width="1.5" stroke-linecap="round"/>
<path d="M17.5 20H15.625" stroke="#919191" stroke-width="1.5" stroke-linecap="round"/>
<path d="M2.5 12.5H8.75M27.5 12.5H13.75" stroke="#919191" stroke-width="1.5" stroke-linecap="round"/>
<path d="M9.08221 36H8.28107C8.22141 35.7017 8.11346 35.4261 7.95721 35.1733C7.8038 34.9176 7.61062 34.6946 7.37766 34.5043C7.14471 34.3139 6.8805 34.1662 6.58505 34.0611C6.2896 33.956 5.96999 33.9034 5.62624 33.9034C5.07511 33.9034 4.57227 34.0469 4.11772 34.3338C3.66602 34.6207 3.3038 35.0426 3.03107 35.5994C2.76119 36.1534 2.62624 36.8324 2.62624 37.6364C2.62624 38.446 2.76119 39.1278 3.03107 39.6818C3.3038 40.2358 3.66602 40.6562 4.11772 40.9432C4.57227 41.2273 5.07511 41.3693 5.62624 41.3693C5.96999 41.3693 6.2896 41.3168 6.58505 41.2116C6.8805 41.1065 7.14471 40.9602 7.37766 40.7727C7.61062 40.5824 7.8038 40.3594 7.95721 40.1037C8.11346 39.848 8.22141 39.571 8.28107 39.2727H9.08221C9.01119 39.6733 8.87766 40.0469 8.68164 40.3935C8.48846 40.7372 8.2413 41.0384 7.94016 41.2969C7.64187 41.5554 7.29812 41.7571 6.90891 41.902C6.51971 42.0469 6.09215 42.1193 5.62624 42.1193C4.89329 42.1193 4.24272 41.9361 3.67454 41.5696C3.10636 41.2003 2.66033 40.6804 2.33647 40.0099C2.01545 39.3395 1.85494 38.5483 1.85494 37.6364C1.85494 36.7244 2.01545 35.9332 2.33647 35.2628C2.66033 34.5923 3.10636 34.0739 3.67454 33.7074C4.24272 33.3381 4.89329 33.1534 5.62624 33.1534C6.09215 33.1534 6.51971 33.2259 6.90891 33.3707C7.29812 33.5128 7.64187 33.7145 7.94016 33.9759C8.2413 34.2344 8.48846 34.5355 8.68164 34.8793C8.87766 35.223 9.01119 35.5966 9.08221 36ZM12.6245 42.1491C12.2296 42.1491 11.8688 42.0724 11.5421 41.919C11.2154 41.7628 10.9554 41.5384 10.7623 41.2457C10.5691 40.9503 10.4725 40.5923 10.4725 40.1719C10.4725 39.848 10.5336 39.5753 10.6557 39.3537C10.7779 39.1321 10.9512 38.9503 11.1756 38.8082C11.4 38.6662 11.6657 38.554 11.9725 38.4716C12.2793 38.3892 12.6174 38.3253 12.9867 38.2798C13.3532 38.2344 13.6628 38.1946 13.9157 38.1605C14.1713 38.1264 14.3659 38.0724 14.4995 37.9986C14.633 37.9247 14.6998 37.8054 14.6998 37.6406V37.4872C14.6998 37.0412 14.5662 36.6903 14.2992 36.4347C14.035 36.1761 13.6543 36.0469 13.1571 36.0469C12.6855 36.0469 12.3006 36.1506 12.0023 36.358C11.7069 36.5653 11.4995 36.8097 11.3801 37.0909L10.66 36.831C10.8077 36.473 11.0123 36.1875 11.2736 35.9744C11.535 35.7585 11.8276 35.6037 12.1515 35.5099C12.4753 35.4134 12.8034 35.3651 13.1358 35.3651C13.3858 35.3651 13.6458 35.3977 13.9157 35.4631C14.1884 35.5284 14.4412 35.642 14.6742 35.804C14.9071 35.9631 15.0961 36.1861 15.2409 36.473C15.3858 36.7571 15.4583 37.1179 15.4583 37.5554V42H14.6998V40.9645H14.6529C14.562 41.1577 14.427 41.3452 14.248 41.527C14.0691 41.7088 13.8446 41.858 13.5748 41.9744C13.3049 42.0909 12.9881 42.1491 12.6245 42.1491ZM12.7267 41.4545C13.1301 41.4545 13.4796 41.3651 13.775 41.1861C14.0705 41.0071 14.2978 40.7699 14.4569 40.4744C14.6188 40.1761 14.6998 39.848 14.6998 39.4901V38.544C14.6429 38.598 14.5478 38.6463 14.4142 38.6889C14.2836 38.7315 14.1316 38.7699 13.9583 38.804C13.7878 38.8352 13.6174 38.8622 13.4469 38.8849C13.2765 38.9077 13.123 38.9276 12.9867 38.9446C12.6174 38.9901 12.302 39.0611 12.0407 39.1577C11.7793 39.2543 11.579 39.3878 11.4398 39.5582C11.3006 39.7259 11.231 39.9418 11.231 40.206C11.231 40.6037 11.373 40.9119 11.6571 41.1307C11.9412 41.3466 12.2978 41.4545 12.7267 41.4545ZM17.476 42V35.4545H18.2132V36.4602H18.2686C18.3993 36.1307 18.6266 35.8651 18.9505 35.6634C19.2772 35.4588 19.6465 35.3565 20.0584 35.3565C20.1209 35.3565 20.1905 35.358 20.2672 35.3608C20.3439 35.3636 20.4078 35.3665 20.459 35.3693V36.1406C20.4249 36.1349 20.3652 36.1264 20.28 36.1151C20.1948 36.1037 20.1025 36.098 20.003 36.098C19.6621 36.098 19.3581 36.1705 19.0911 36.3153C18.8269 36.4574 18.6181 36.6548 18.4647 36.9077C18.3113 37.1605 18.2346 37.4489 18.2346 37.7727V42H17.476ZM23.9107 42.1364C23.3738 42.1364 22.9036 41.9943 22.5002 41.7102C22.0968 41.4261 21.7814 41.0298 21.5542 40.5213C21.3297 40.0128 21.2175 39.4205 21.2175 38.7443C21.2175 38.071 21.3297 37.4815 21.5542 36.9759C21.7814 36.4673 22.0982 36.0724 22.5044 35.7912C22.9107 35.5071 23.3837 35.3651 23.9235 35.3651C24.3212 35.3651 24.6522 35.4361 24.9164 35.5781C25.1806 35.7173 25.3922 35.8906 25.5513 36.098C25.7104 36.3054 25.834 36.5071 25.9221 36.7031H25.9902V33.2727H26.753V42H26.0115V40.7855H25.9221C25.834 40.9844 25.709 41.1889 25.5471 41.3991C25.3851 41.6065 25.1706 41.7812 24.9036 41.9233C24.6394 42.0653 24.3084 42.1364 23.9107 42.1364ZM24.0002 41.4418C24.4235 41.4418 24.7843 41.3267 25.0826 41.0966C25.3809 40.8636 25.6081 40.544 25.7644 40.1378C25.9235 39.7287 26.003 39.2599 26.003 38.7315C26.003 38.2088 25.9249 37.7472 25.7686 37.3466C25.6124 36.9432 25.3851 36.6278 25.0868 36.4006C24.7885 36.1705 24.4263 36.0554 24.0002 36.0554C23.5627 36.0554 23.1934 36.1747 22.8922 36.4134C22.5939 36.6491 22.3667 36.9687 22.2104 37.3722C22.057 37.7756 21.9803 38.2287 21.9803 38.7315C21.9803 39.2401 22.0584 39.6989 22.2147 40.108C22.3709 40.517 22.5982 40.8423 22.8965 41.0838C23.1976 41.3224 23.5655 41.4418 24.0002 41.4418Z" fill="#919191"/>
</svg>
