<svg width="30" height="45" viewBox="0 0 30 45" fill="none" xmlns="http://www.w3.org/2000/svg">
<path d="M16.875 3.4375C17.3927 3.4375 17.8125 3.01776 17.8125 2.5C17.8125 1.98224 17.3927 1.5625 16.875 1.5625V3.4375ZM28.4375 13.125C28.4375 12.6073 28.0177 12.1875 27.5 12.1875C26.9823 12.1875 26.5625 12.6073 26.5625 13.125H28.4375ZM1.5625 13.125C1.5625 13.6427 1.98224 14.0625 2.5 14.0625C3.01776 14.0625 3.4375 13.6427 3.4375 13.125H1.5625ZM3.84189 19.533C3.64375 19.0546 3.09534 18.8275 2.61699 19.0256C2.13864 19.2237 1.91148 19.7721 2.10961 20.2505L3.84189 19.533ZM17.1651 27.2121L17.8428 26.0674L16.2291 25.1122L15.5515 26.2571L17.1651 27.2121ZM12.1572 26.0674L12.8349 27.2121L14.4484 26.2571L13.7708 25.1122L12.1572 26.0674ZM15.5515 26.2571C15.3106 26.6641 14.6894 26.6641 14.4484 26.2571L12.8349 27.2121C13.8019 28.8459 16.1981 28.8459 17.1651 27.2121L15.5515 26.2571ZM13.125 3.4375H16.875V1.5625H13.125V3.4375ZM26.5625 13.125V14.375H28.4375V13.125H26.5625ZM9.75312 22.802C8.18382 22.7749 7.36154 22.6751 6.71699 22.4081L5.99946 24.1404C7.00568 24.5571 8.15172 24.6496 9.72083 24.6766L9.75312 22.802ZM2.10961 20.2505C2.8391 22.0116 4.23833 23.4109 5.99946 24.1404L6.71699 22.4081C5.41527 21.8689 4.38108 20.8347 3.84189 19.533L2.10961 20.2505ZM26.5625 14.375C26.5625 15.8439 26.562 16.8986 26.5053 17.7309C26.449 18.5548 26.3407 19.092 26.1581 19.533L27.8904 20.2505C28.1835 19.543 28.3131 18.7779 28.3759 17.8585C28.438 16.9476 28.4375 15.8182 28.4375 14.375H26.5625ZM20.2791 24.6766C21.8483 24.6496 22.9944 24.5571 24.0005 24.1404L23.283 22.4081C22.6385 22.6751 21.8161 22.7749 20.2469 22.802L20.2791 24.6766ZM26.1581 19.533C25.6189 20.8347 24.5847 21.8689 23.283 22.4081L24.0005 24.1404C25.7616 23.4109 27.1609 22.0116 27.8904 20.2505L26.1581 19.533ZM13.125 1.5625C11.0973 1.5625 9.51062 1.56151 8.24514 1.68184C6.9657 1.80349 5.91806 2.05571 4.99454 2.62165L5.97423 4.22035C6.55364 3.86529 7.28043 3.65701 8.42261 3.54841C9.57875 3.43849 11.061 3.4375 13.125 3.4375V1.5625ZM3.4375 13.125C3.4375 11.061 3.43849 9.57875 3.54841 8.42261C3.65701 7.28043 3.86529 6.55364 4.22035 5.97423L2.62165 4.99454C2.05571 5.91806 1.80349 6.9657 1.68184 8.24514C1.56151 9.51062 1.5625 11.0973 1.5625 13.125H3.4375ZM4.99454 2.62165C4.02743 3.2143 3.2143 4.02743 2.62165 4.99454L4.22035 5.97423C4.6584 5.2594 5.2594 4.6584 5.97423 4.22035L4.99454 2.62165ZM13.7708 25.1122C13.517 24.6835 13.2943 24.3051 13.0776 24.0079C12.8494 23.6949 12.5877 23.413 12.2248 23.2019L11.2821 24.8228C11.3414 24.8571 11.4222 24.92 11.5623 25.1122C11.714 25.3205 11.8854 25.6081 12.1572 26.0674L13.7708 25.1122ZM9.72083 24.6766C10.2697 24.6861 10.6173 24.6931 10.8823 24.7224C11.13 24.7499 11.226 24.79 11.2821 24.8228L12.2248 23.2019C11.8589 22.989 11.4781 22.9019 11.0887 22.8588C10.7167 22.8176 10.2672 22.8109 9.75312 22.802L9.72083 24.6766ZM17.8428 26.0674C18.1145 25.6081 18.2859 25.3205 18.4376 25.1122C18.5777 24.92 18.6585 24.8571 18.7178 24.8228L17.7751 23.2019C17.4123 23.413 17.1505 23.6949 16.9224 24.0079C16.7057 24.3051 16.483 24.6835 16.2291 25.1122L17.8428 26.0674ZM20.2469 22.802C19.7327 22.8109 19.2832 22.8176 18.9112 22.8588C18.5219 22.9019 18.1411 22.989 17.7751 23.2019L18.7178 24.8228C18.774 24.79 18.87 24.7499 19.1176 24.7224C19.3826 24.6931 19.7303 24.6861 20.2791 24.6766L20.2469 22.802Z" fill="#919191"/>
<path d="M23.75 10C25.8211 10 27.5 8.32107 27.5 6.25C27.5 4.17893 25.8211 2.5 23.75 2.5C21.6789 2.5 20 4.17893 20 6.25C20 8.32107 21.6789 10 23.75 10Z" stroke="#919191" stroke-width="1.5"/>
<path d="M10.1525 36H9.35138C9.29173 35.7017 9.18377 35.4261 9.02752 35.1733C8.87411 34.9176 8.68093 34.6946 8.44798 34.5043C8.21502 34.3139 7.95082 34.1662 7.65536 34.0611C7.35991 33.956 7.04031 33.9034 6.69656 33.9034C6.14542 33.9034 5.64258 34.0469 5.18803 34.3338C4.73633 34.6207 4.37411 35.0426 4.10139 35.5994C3.8315 36.1534 3.69656 36.8324 3.69656 37.6364C3.69656 38.446 3.8315 39.1278 4.10139 39.6818C4.37411 40.2358 4.73633 40.6562 5.18803 40.9432C5.64258 41.2273 6.14542 41.3693 6.69656 41.3693C7.04031 41.3693 7.35991 41.3168 7.65536 41.2116C7.95082 41.1065 8.21502 40.9602 8.44798 40.7727C8.68093 40.5824 8.87411 40.3594 9.02752 40.1037C9.18377 39.848 9.29173 39.571 9.35138 39.2727H10.1525C10.0815 39.6733 9.94798 40.0469 9.75195 40.3935C9.55877 40.7372 9.31161 41.0384 9.01048 41.2969C8.71218 41.5554 8.36843 41.7571 7.97923 41.902C7.59002 42.0469 7.16246 42.1193 6.69656 42.1193C5.9636 42.1193 5.31303 41.9361 4.74485 41.5696C4.17667 41.2003 3.73065 40.6804 3.40678 40.0099C3.08576 39.3395 2.92525 38.5483 2.92525 37.6364C2.92525 36.7244 3.08576 35.9332 3.40678 35.2628C3.73065 34.5923 4.17667 34.0739 4.74485 33.7074C5.31303 33.3381 5.9636 33.1534 6.69656 33.1534C7.16246 33.1534 7.59002 33.2259 7.97923 33.3707C8.36843 33.5128 8.71218 33.7145 9.01048 33.9759C9.31161 34.2344 9.55877 34.5355 9.75195 34.8793C9.94798 35.223 10.0815 35.5966 10.1525 36ZM12.6252 37.9091V42H11.8667V33.2727H12.6252V36.4815H12.6934C12.8468 36.1435 13.084 35.8736 13.405 35.6719C13.7289 35.4702 14.138 35.3693 14.6323 35.3693C15.0755 35.3693 15.4647 35.4602 15.7999 35.642C16.1351 35.8239 16.3965 36.0923 16.584 36.4474C16.7715 36.8026 16.8652 37.2401 16.8652 37.7599V42H16.1025V37.8068C16.1025 37.267 15.9519 36.8423 15.6507 36.5327C15.3525 36.2202 14.949 36.0639 14.4405 36.0639C14.0911 36.0639 13.78 36.1378 13.5073 36.2855C13.2346 36.4332 13.0186 36.6463 12.8596 36.9247C12.7033 37.2003 12.6252 37.5284 12.6252 37.9091ZM20.6909 42.1491C20.296 42.1491 19.9352 42.0724 19.6085 41.919C19.2818 41.7628 19.0218 41.5384 18.8287 41.2457C18.6355 40.9503 18.5389 40.5923 18.5389 40.1719C18.5389 39.848 18.6 39.5753 18.7221 39.3537C18.8443 39.1321 19.0176 38.9503 19.242 38.8082C19.4664 38.6662 19.7321 38.554 20.0389 38.4716C20.3457 38.3892 20.6838 38.3253 21.0531 38.2798C21.4196 38.2344 21.7292 38.1946 21.9821 38.1605C22.2377 38.1264 22.4324 38.0724 22.5659 37.9986C22.6994 37.9247 22.7662 37.8054 22.7662 37.6406V37.4872C22.7662 37.0412 22.6326 36.6903 22.3656 36.4347C22.1014 36.1761 21.7207 36.0469 21.2235 36.0469C20.752 36.0469 20.367 36.1506 20.0687 36.358C19.7733 36.5653 19.5659 36.8097 19.4466 37.0909L18.7264 36.831C18.8741 36.473 19.0787 36.1875 19.34 35.9744C19.6014 35.7585 19.894 35.6037 20.2179 35.5099C20.5417 35.4134 20.8699 35.3651 21.2022 35.3651C21.4522 35.3651 21.7122 35.3977 21.9821 35.4631C22.2548 35.5284 22.5076 35.642 22.7406 35.804C22.9735 35.9631 23.1625 36.1861 23.3074 36.473C23.4522 36.7571 23.5247 37.1179 23.5247 37.5554V42H22.7662V40.9645H22.7193C22.6284 41.1577 22.4934 41.3452 22.3145 41.527C22.1355 41.7088 21.911 41.858 21.6412 41.9744C21.3713 42.0909 21.0545 42.1491 20.6909 42.1491ZM20.7931 41.4545C21.1966 41.4545 21.546 41.3651 21.8414 41.1861C22.1369 41.0071 22.3642 40.7699 22.5233 40.4744C22.6852 40.1761 22.7662 39.848 22.7662 39.4901V38.544C22.7093 38.598 22.6142 38.6463 22.4806 38.6889C22.35 38.7315 22.198 38.7699 22.0247 38.804C21.8542 38.8352 21.6838 38.8622 21.5133 38.8849C21.3429 38.9077 21.1895 38.9276 21.0531 38.9446C20.6838 38.9901 20.3684 39.0611 20.1071 39.1577C19.8457 39.2543 19.6454 39.3878 19.5062 39.5582C19.367 39.7259 19.2974 39.9418 19.2974 40.206C19.2974 40.6037 19.4395 40.9119 19.7235 41.1307C20.0076 41.3466 20.3642 41.4545 20.7931 41.4545ZM28.1206 35.4545V36.1151H24.997V35.4545H28.1206ZM25.9728 33.8864H26.7356V40.2912C26.7356 40.5639 26.7825 40.7784 26.8762 40.9347C26.97 41.0881 27.0922 41.1974 27.2427 41.2628C27.3933 41.3253 27.5538 41.3565 27.7243 41.3565C27.8237 41.3565 27.9089 41.3509 27.9799 41.3395C28.051 41.3253 28.1135 41.3111 28.1674 41.2969L28.3294 41.983C28.2555 42.0114 28.1646 42.0369 28.0566 42.0597C27.9487 42.0852 27.8152 42.098 27.6561 42.098C27.3777 42.098 27.1092 42.0369 26.8507 41.9148C26.595 41.7926 26.3848 41.6108 26.22 41.3693C26.0552 41.1278 25.9728 40.8281 25.9728 40.4702V33.8864Z" fill="#919191"/>
</svg>
