<svg width="40" height="55" viewBox="0 0 40 55" fill="none" xmlns="http://www.w3.org/2000/svg">
<g clip-path="url(#clip0_19_162)">
<path d="M8.33331 16.6667V31.6667C8.33331 32.5872 9.07951 33.3333 9.99998 33.3333H30C30.9205 33.3333 31.6666 32.5872 31.6666 31.6667V16.6667" stroke="#919191" stroke-width="2.4" stroke-linecap="round"/>
<path d="M35 18.3333L20.5117 7.06458C20.2107 6.83053 19.7893 6.83053 19.4883 7.06458L5 18.3333" stroke="#919191" stroke-width="2.4" stroke-linecap="round"/>
</g>
<path d="M4.54776 52V43.2727H5.34464V47.2741H10.2963V43.2727H11.0932V52H10.2963V47.9901H5.34464V52H4.54776ZM15.7935 52.1364C15.2282 52.1364 14.7282 51.9929 14.2935 51.706C13.8617 51.419 13.5236 51.0227 13.2793 50.517C13.035 50.0085 12.9128 49.4219 12.9128 48.7571C12.9128 48.0866 13.035 47.4972 13.2793 46.9886C13.5236 46.4773 13.8617 46.0795 14.2935 45.7955C14.7282 45.5085 15.2282 45.3651 15.7935 45.3651C16.3588 45.3651 16.8574 45.5085 17.2892 45.7955C17.7211 46.0824 18.0591 46.4801 18.3034 46.9886C18.5506 47.4972 18.6742 48.0866 18.6742 48.7571C18.6742 49.4219 18.552 50.0085 18.3077 50.517C18.0634 51.0227 17.7239 51.419 17.2892 51.706C16.8574 51.9929 16.3588 52.1364 15.7935 52.1364ZM15.7935 51.4418C16.248 51.4418 16.633 51.3196 16.9483 51.0753C17.2637 50.831 17.5023 50.5057 17.6642 50.0994C17.829 49.6932 17.9114 49.2457 17.9114 48.7571C17.9114 48.2685 17.829 47.8196 17.6642 47.4105C17.5023 47.0014 17.2637 46.6733 16.9483 46.4261C16.633 46.179 16.248 46.0554 15.7935 46.0554C15.3418 46.0554 14.9569 46.179 14.6387 46.4261C14.3233 46.6733 14.0833 47.0014 13.9185 47.4105C13.7566 47.8196 13.6756 48.2685 13.6756 48.7571C13.6756 49.2457 13.7566 49.6932 13.9185 50.0994C14.0833 50.5057 14.3233 50.831 14.6387 51.0753C14.954 51.3196 15.339 51.4418 15.7935 51.4418ZM20.3393 52V45.4545H21.0765V46.4602H21.1447C21.2754 46.1222 21.4927 45.8565 21.7967 45.6634C22.1035 45.4673 22.4714 45.3693 22.9004 45.3693C23.3521 45.3693 23.7228 45.4759 24.0126 45.6889C24.3052 45.8991 24.524 46.1889 24.6689 46.5582H24.7243C24.872 46.1946 25.112 45.9062 25.4444 45.6932C25.7797 45.4773 26.1859 45.3693 26.6632 45.3693C27.2711 45.3693 27.7512 45.5611 28.1035 45.9446C28.4558 46.3253 28.6319 46.8821 28.6319 47.6151V52H27.8734V47.6151C27.8734 47.098 27.7413 46.7102 27.4771 46.4517C27.2129 46.1932 26.8649 46.0639 26.4331 46.0639C25.9331 46.0639 25.5481 46.2173 25.2782 46.5241C25.0083 46.831 24.8734 47.2202 24.8734 47.6918V52H24.0978V47.5469C24.0978 47.1037 23.9743 46.7457 23.7271 46.473C23.4799 46.2003 23.1319 46.0639 22.6831 46.0639C22.3819 46.0639 22.1106 46.1378 21.8691 46.2855C21.6305 46.4332 21.4416 46.6392 21.3024 46.9034C21.166 47.1648 21.0978 47.4659 21.0978 47.8068V52H20.3393ZM33.2864 52.1364C32.6756 52.1364 32.1472 51.9943 31.7012 51.7102C31.2551 51.4233 30.91 51.027 30.6657 50.5213C30.4242 50.0128 30.3034 49.4276 30.3034 48.7656C30.3034 48.1065 30.4242 47.5213 30.6657 47.0099C30.91 46.4957 31.2466 46.0937 31.6756 45.804C32.1074 45.5114 32.606 45.3651 33.1713 45.3651C33.5265 45.3651 33.8688 45.4304 34.1983 45.5611C34.5279 45.6889 34.8233 45.8864 35.0847 46.1534C35.3489 46.4176 35.5577 46.7514 35.7111 47.1548C35.8645 47.5554 35.9412 48.0298 35.9412 48.5781V48.9531H30.8276V48.2841H35.1657C35.1657 47.8636 35.0804 47.4858 34.91 47.1506C34.7424 46.8125 34.508 46.5455 34.2069 46.3494C33.9086 46.1534 33.5634 46.0554 33.1713 46.0554C32.7566 46.0554 32.3915 46.1662 32.0762 46.3878C31.7608 46.6094 31.5137 46.902 31.3347 47.2656C31.1586 47.6293 31.0691 48.027 31.0662 48.4588V48.8594C31.0662 49.3793 31.1557 49.8338 31.3347 50.223C31.5165 50.6094 31.7736 50.9091 32.106 51.1222C32.4384 51.3352 32.8319 51.4418 33.2864 51.4418C33.5961 51.4418 33.8674 51.3935 34.1003 51.2969C34.3361 51.2003 34.5336 51.071 34.6926 50.9091C34.8546 50.7443 34.9767 50.5639 35.0591 50.3679L35.7793 50.6023C35.6799 50.8778 35.5165 51.1321 35.2892 51.3651C35.0648 51.598 34.7836 51.7855 34.4455 51.9276C34.1103 52.0668 33.7239 52.1364 33.2864 52.1364Z" fill="#919191"/>
<defs>
<clipPath id="clip0_19_162">
<rect width="40" height="40" fill="white"/>
</clipPath>
</defs>
</svg>
