<svg width="35" height="35" viewBox="0 0 35 35" fill="none" xmlns="http://www.w3.org/2000/svg">
<path d="M15.0221 19.9717L29.3154 5.68373M15.4284 20.6143L18.6694 27.0964C19.4527 28.6628 19.8443 29.4461 20.3376 29.6561C20.7658 29.8384 21.2552 29.8053 21.6551 29.5673C22.1158 29.293 22.3987 28.4642 22.9646 26.8068L29.0883 8.87299C29.5815 7.42887 29.828 6.70681 29.6593 6.22915C29.5124 5.81361 29.1856 5.48674 28.7701 5.33993C28.2924 5.17117 27.5704 5.41773 26.1262 5.91084L8.19236 12.0346C6.53498 12.6005 5.70628 12.8835 5.43195 13.3442C5.19388 13.744 5.16089 14.2334 5.34315 14.6615C5.55318 15.1548 6.33641 15.5466 7.90286 16.3297L14.3849 19.5708C14.6431 19.6999 14.7722 19.7643 14.8839 19.8505C14.9832 19.9271 15.0721 20.0161 15.1486 20.1152C15.2349 20.2271 15.2994 20.3561 15.4284 20.6143Z" stroke="#014A77" stroke-width="2" stroke-linecap="round" stroke-linejoin="round"/>
</svg>
